<svg width="79" height="77" viewBox="0 0 79 77" fill="none" xmlns="http://www.w3.org/2000/svg">
<path d="M19.4917 76.4082C17.991 76.3711 16.5373 75.8769 15.325 74.9916C14.0462 74.0723 13.0994 72.7638 12.6262 71.2616C12.153 69.7594 12.1789 68.1445 12.7 66.6583L17.95 50.4916C18.1552 49.8537 18.1529 49.1672 17.9432 48.5308C17.7336 47.8944 17.3275 47.3409 16.7833 46.9499L3.03332 36.9499C1.79639 36.045 0.874079 34.7752 0.395977 33.3191C-0.0821264 31.8629 -0.0919908 30.2936 0.367769 28.8316C0.827528 27.3695 1.7338 26.0883 2.95926 25.1679C4.18471 24.2474 5.66774 23.7341 7.19998 23.6999H24.2C24.8393 23.7146 25.4681 23.5353 26.0035 23.1858C26.539 22.8362 26.9561 22.3328 27.2 21.7416L32.45 5.53326C32.8942 4.03821 33.814 2.72887 35.0698 1.80395C36.3256 0.879022 37.8488 0.389007 39.4083 0.408261C40.9557 0.390404 42.4677 0.870981 43.7208 1.77893C44.974 2.68687 45.9016 3.97398 46.3667 5.44993L51.6167 21.7416C51.8318 22.3683 52.2356 22.9131 52.7728 23.301C53.31 23.689 53.9541 23.9011 54.6167 23.9083H71.6583C73.1906 23.9424 74.6736 24.4558 75.899 25.3762C77.1245 26.2966 78.0308 27.5779 78.4905 29.0399C78.9503 30.5019 78.9404 32.0713 78.4623 33.5274C77.9842 34.9836 77.0619 36.2533 75.825 37.1583L62.075 47.1583C61.5308 47.5492 61.1247 48.1027 60.9151 48.7392C60.7054 49.3756 60.7031 50.0621 60.9083 50.6999L66.2 66.9083C66.7099 68.3994 66.7259 70.0152 66.2456 71.5162C65.7653 73.0172 64.8142 74.3235 63.5333 75.2416C62.2906 76.1779 60.7768 76.6843 59.2208 76.6843C57.6648 76.6843 56.1511 76.1779 54.9083 75.2416L41.1583 65.2416C40.6162 64.8577 39.9684 64.6516 39.3042 64.6516C38.6399 64.6516 37.9921 64.8577 37.45 65.2416L23.6583 75.2416C22.4228 76.0505 20.9676 76.4579 19.4917 76.4082ZM7.15832 27.9916C6.4896 27.9726 5.83325 28.1745 5.29091 28.5662C4.74857 28.9579 4.3505 29.5175 4.15832 30.1583C3.94209 30.7913 3.93469 31.4769 4.1372 32.1145C4.3397 32.752 4.74144 33.3077 5.28332 33.6999L19.075 43.6999C20.3507 44.6224 21.2978 45.929 21.7776 47.4284C22.2574 48.9279 22.2448 50.5415 21.7417 52.0333L16.4917 68.0749C16.2685 68.7073 16.2577 69.3952 16.4607 70.0343C16.6637 70.6734 17.0695 71.2289 17.6167 71.6166C18.1483 72.0254 18.8002 72.2471 19.4708 72.2471C20.1415 72.2471 20.7933 72.0254 21.325 71.6166L35.2417 61.6166C36.4859 60.7027 37.9895 60.2099 39.5333 60.2099C41.0772 60.2099 42.5807 60.7027 43.825 61.6166L57.4917 71.7416C58.0233 72.1504 58.6752 72.3721 59.3458 72.3721C60.0165 72.3721 60.6683 72.1504 61.2 71.7416C61.7471 71.3539 62.153 70.7984 62.356 70.1593C62.559 69.5202 62.5481 68.8323 62.325 68.1999L57.075 52.0333C56.5718 50.5415 56.5592 48.9279 57.039 47.4284C57.5189 45.929 58.4659 44.6224 59.7417 43.6999L73.4917 33.6999C74.0225 33.3057 74.4165 32.7551 74.6186 32.1256C74.8207 31.496 74.8206 30.819 74.6184 30.1895C74.4163 29.5599 74.0221 29.0095 73.4912 28.6153C72.9604 28.2212 72.3194 28.003 71.6583 27.9916H54.6167C53.0882 27.9726 51.6039 27.4764 50.3712 26.5725C49.1386 25.6685 48.2192 24.402 47.7417 22.9499L42.4083 6.74159C42.2161 6.1008 41.8181 5.54123 41.2757 5.14955C40.7334 4.75786 40.077 4.55589 39.4083 4.57493C38.7396 4.55589 38.0833 4.75786 37.5409 5.14955C36.9986 5.54123 36.6005 6.1008 36.4083 6.74159L31.075 22.9499C30.5974 24.402 29.6781 25.6685 28.4454 26.5725C27.2128 27.4764 25.7284 27.9726 24.2 27.9916H7.15832Z" fill="#FF4343"/>
</svg>
