<svg width="85" height="65" viewBox="0 0 85 65" fill="none" xmlns="http://www.w3.org/2000/svg">
<path d="M61.1083 46.1999H43.6499C43.0974 46.1999 42.5675 45.9804 42.1768 45.5897C41.7861 45.199 41.5666 44.6691 41.5666 44.1165C41.5666 43.564 41.7861 43.0341 42.1768 42.6434C42.5675 42.2527 43.0974 42.0332 43.6499 42.0332H61.1083C61.6608 42.0332 62.1907 42.2527 62.5814 42.6434C62.9721 43.0341 63.1916 43.564 63.1916 44.1165C63.1916 44.6691 62.9721 45.199 62.5814 45.5897C62.1907 45.9804 61.6608 46.1999 61.1083 46.1999Z" fill="#FF4343"/>
<path d="M72.8583 44.9082C72.6117 44.9667 72.3549 44.9667 72.1083 44.9082C71.8515 44.8157 71.6159 44.6726 71.4154 44.4874C71.2149 44.3022 71.0535 44.0787 70.9408 43.8301C70.8282 43.5815 70.7665 43.3128 70.7595 43.04C70.7525 42.7671 70.8003 42.4956 70.9 42.2416L80.8166 15.7416C81.0129 15.2299 81.4028 14.8162 81.902 14.59C82.4011 14.3638 82.9692 14.3434 83.4833 14.5332C83.9989 14.7387 84.416 15.1341 84.6486 15.638C84.8812 16.142 84.9115 16.7159 84.7333 17.2416L74.8166 43.6166C74.6487 43.9971 74.3747 44.3213 74.0274 44.5504C73.6801 44.7794 73.2743 44.9036 72.8583 44.9082Z" fill="#FF4343"/>
<path d="M30.3166 45.7C29.8819 45.7032 29.4575 45.5674 29.1053 45.3126C28.7531 45.0578 28.4914 44.6972 28.3583 44.2834L15.275 4.53337H2.77496C2.22242 4.53337 1.69252 4.31387 1.30182 3.92317C0.911117 3.53247 0.691624 3.00257 0.691624 2.45003C0.702291 1.90084 0.925209 1.37711 1.31362 0.988698C1.70203 0.600285 2.22576 0.377366 2.77496 0.366699H16.775C17.2067 0.375905 17.6253 0.516406 17.9752 0.769489C18.325 1.02257 18.5895 1.37623 18.7333 1.78337L32.4416 42.95C32.5329 43.207 32.5718 43.4796 32.5561 43.7519C32.5403 44.0241 32.4701 44.2904 32.3497 44.5351C32.2293 44.7798 32.0611 44.9979 31.8551 45.1765C31.649 45.3551 31.4093 45.4906 31.15 45.575C30.8853 45.6794 30.6003 45.7221 30.3166 45.7Z" fill="#FF4343"/>
<path d="M36.7333 64.45C34.261 64.45 31.8443 63.7169 29.7886 62.3433C27.733 60.9698 26.1309 59.0176 25.1848 56.7335C24.2387 54.4494 23.9911 51.9361 24.4735 49.5113C24.9558 47.0866 26.1463 44.8593 27.8944 43.1111C29.6426 41.363 31.8699 40.1725 34.2946 39.6901C36.7194 39.2078 39.2327 39.4554 41.5168 40.4015C43.8009 41.3476 45.7531 42.9497 47.1266 45.0053C48.5002 47.0609 49.2333 49.4777 49.2333 51.95C49.2333 55.2652 47.9163 58.4446 45.5721 60.7888C43.2279 63.133 40.0485 64.45 36.7333 64.45ZM36.7333 43.6166C35.0851 43.6166 33.4739 44.1054 32.1035 45.021C30.7331 45.9367 29.665 47.2382 29.0343 48.7609C28.4035 50.2836 28.2385 51.9592 28.5601 53.5757C28.8816 55.1922 29.6753 56.6771 30.8407 57.8425C32.0062 59.008 33.491 59.8016 35.1075 60.1232C36.724 60.4447 38.3996 60.2797 39.9223 59.649C41.445 59.0182 42.7465 57.9501 43.6622 56.5797C44.5779 55.2093 45.0666 53.5981 45.0666 51.95C45.0666 49.7398 44.1886 47.6202 42.6258 46.0574C41.063 44.4946 38.9434 43.6166 36.7333 43.6166Z" fill="#FF4343"/>
<path d="M68.025 64.45C65.5527 64.45 63.136 63.7169 61.0804 62.3433C59.0247 60.9698 57.4226 59.0176 56.4765 56.7335C55.5304 54.4494 55.2828 51.9361 55.7652 49.5113C56.2475 47.0866 57.438 44.8593 59.1861 43.1111C60.9343 41.363 63.1616 40.1725 65.5864 39.6901C68.0111 39.2078 70.5244 39.4554 72.8085 40.4015C75.0926 41.3476 77.0448 42.9497 78.4184 45.0053C79.7919 47.0609 80.525 49.4777 80.525 51.95C80.525 55.2652 79.208 58.4446 76.8638 60.7888C74.5196 63.133 71.3402 64.45 68.025 64.45ZM68.025 43.6166C66.3768 43.6166 64.7656 44.1054 63.3952 45.021C62.0248 45.9367 60.9567 47.2382 60.326 48.7609C59.6953 50.2836 59.5302 51.9592 59.8518 53.5757C60.1733 55.1922 60.967 56.6771 62.1324 57.8425C63.2979 59.008 64.7827 59.8016 66.3992 60.1232C68.0157 60.4447 69.6913 60.2797 71.214 59.649C72.7367 59.0182 74.0382 57.9501 74.9539 56.5797C75.8696 55.2093 76.3583 53.5981 76.3583 51.95C76.3583 49.7398 75.4803 47.6202 73.9175 46.0574C72.3547 44.4946 70.2351 43.6166 68.025 43.6166Z" fill="#FF4343"/>
</svg>
