<svg width="77" height="77" viewBox="0 0 77 77" fill="none" xmlns="http://www.w3.org/2000/svg">
<path d="M50.7594 76.1257H13.5927C10.0968 76.1146 6.74795 74.7182 4.27991 72.2423C1.81188 69.7665 0.426008 66.4132 0.426025 62.9173V25.8757C0.437013 22.387 1.82774 19.0444 4.29459 16.5776C6.76144 14.1107 10.1041 12.72 13.5927 12.709H24.7177C25.2702 12.709 25.8001 12.9285 26.1908 13.3192C26.5815 13.7099 26.801 14.2398 26.801 14.7923C26.801 15.3449 26.5815 15.8748 26.1908 16.2655C25.8001 16.6562 25.2702 16.8757 24.7177 16.8757H13.5927C11.2091 16.8866 8.9263 17.8383 7.24084 19.5238C5.55538 21.2093 4.60365 23.4921 4.59269 25.8757V62.9173C4.59267 65.3081 5.53955 67.6016 7.22619 69.2961C8.91283 70.9905 11.2019 71.948 13.5927 71.959H50.7594C51.9467 71.959 53.1225 71.7251 54.2195 71.2707C55.3164 70.8164 56.3132 70.1503 57.1528 69.3107C57.9924 68.4712 58.6584 67.4744 59.1128 66.3774C59.5672 65.2804 59.801 64.1047 59.801 62.9173V55.5007C59.801 54.9481 60.0205 54.4182 60.4112 54.0275C60.8019 53.6368 61.3318 53.4173 61.8844 53.4173C62.4369 53.4173 62.9668 53.6368 63.3575 54.0275C63.7482 54.4182 63.9677 54.9481 63.9677 55.5007V62.9173C63.9677 66.4204 62.5761 69.78 60.0991 72.257C57.622 74.7341 54.2624 76.1257 50.7594 76.1257V76.1257Z" fill="#FF4343"/>
<path d="M61.7177 27.3756C61.1793 27.3761 60.6616 27.1681 60.2733 26.7952C59.8849 26.4223 59.6559 25.9136 59.6344 25.3756C59.5514 23.8318 59.0627 22.3371 58.2177 21.0423C57.5375 19.9667 56.6266 19.0559 55.551 18.3756C54.3 17.5675 52.8687 17.0808 51.3844 16.959C51.1107 16.9483 50.8418 16.8837 50.5932 16.7689C50.3445 16.6542 50.1209 16.4916 49.9351 16.2903C49.7494 16.0891 49.6051 15.8532 49.5106 15.5962C49.4161 15.3391 49.3732 15.066 49.3844 14.7923C49.3726 14.2647 49.5657 13.7529 49.923 13.3645C50.2803 12.9761 50.7742 12.7412 51.301 12.709C53.6146 12.8121 55.8586 13.5313 57.801 14.7923C59.3831 15.7885 60.7215 17.127 61.7177 18.709C62.9787 20.6514 63.6979 22.8954 63.801 25.209C63.8122 25.4826 63.7693 25.7558 63.6748 26.0128C63.5803 26.2699 63.436 26.5058 63.2503 26.707C63.0645 26.9082 62.8409 27.0709 62.5922 27.1856C62.3435 27.3003 62.0747 27.3649 61.801 27.3756H61.7177Z" fill="#FF4343"/>
<path d="M42.4259 46.5006H32.1343C31.5817 46.5006 31.0518 46.2811 30.6611 45.8904C30.2704 45.4997 30.0509 44.9698 30.0509 44.4172V33.9172C30.0477 33.3736 30.257 32.8503 30.6343 32.4589L51.4676 11.6256C51.8571 11.2438 52.3806 11.03 52.926 11.03C53.4713 11.03 53.9948 11.2438 54.3843 11.6256L58.0093 15.2506C58.391 15.64 58.6048 16.1636 58.6048 16.7089C58.6048 17.2542 58.391 17.7778 58.0093 18.1672C57.8156 18.3625 57.5852 18.5175 57.3313 18.6233C57.0774 18.729 56.8051 18.7835 56.5301 18.7835C56.2551 18.7835 55.9828 18.729 55.7289 18.6233C55.475 18.5175 55.2446 18.3625 55.051 18.1672L52.926 16.0839L34.0926 34.7922V42.3339H41.6343L60.5093 23.4172L58.3843 21.2922C58.0026 20.9028 57.7887 20.3792 57.7887 19.8339C57.7887 19.2886 58.0026 18.765 58.3843 18.3756C58.578 18.1803 58.8084 18.0253 59.0623 17.9195C59.3161 17.8138 59.5884 17.7593 59.8634 17.7593C60.1385 17.7593 60.4108 17.8138 60.6647 17.9195C60.9185 18.0253 61.1489 18.1803 61.3426 18.3756L64.9259 21.9589C65.1212 22.1526 65.2762 22.383 65.382 22.6369C65.4877 22.8907 65.5422 23.163 65.5422 23.4381C65.5422 23.7131 65.4877 23.9854 65.382 24.2393C65.2762 24.4931 65.1212 24.7236 64.9259 24.9172L44.0926 45.7506C43.8844 45.9873 43.628 46.1767 43.3405 46.3061C43.053 46.4354 42.7412 46.5018 42.4259 46.5006V46.5006Z" fill="#FF4343"/>
<path d="M63.5927 25.5006C63.0363 25.506 62.4993 25.2971 62.0927 24.9173L58.5094 21.2923C58.1276 20.9028 57.9138 20.3793 57.9138 19.8339C57.9138 19.2886 58.1276 18.765 58.5094 18.3756C58.703 18.1803 58.9335 18.0254 59.1873 17.9196C59.4412 17.8138 59.7135 17.7594 59.9885 17.7594C60.2636 17.7594 60.5359 17.8138 60.7897 17.9196C61.0436 18.0254 61.274 18.1803 61.4677 18.3756L63.5927 20.5006L71.0927 12.9589L63.5927 5.45894L56.051 12.9589L58.176 15.0839C58.5578 15.4734 58.7716 15.997 58.7716 16.5423C58.7716 17.0876 58.5578 17.6112 58.176 18.0006C57.9824 18.1959 57.7519 18.3509 57.4981 18.4566C57.2442 18.5624 56.9719 18.6169 56.6969 18.6169C56.4218 18.6169 56.1495 18.5624 55.8957 18.4566C55.6418 18.3509 55.4114 18.1959 55.2177 18.0006L51.6344 14.4173C51.4342 14.2312 51.2752 14.0054 51.1676 13.7542C51.0599 13.5031 51.006 13.2322 51.0094 12.9589C51.0053 12.6794 51.0587 12.4021 51.1662 12.1441C51.2737 11.8861 51.4331 11.6529 51.6344 11.4589L62.0927 1.04227C62.2864 0.847004 62.5168 0.692016 62.7707 0.586248C63.0245 0.48048 63.2968 0.426025 63.5719 0.426025C63.8469 0.426025 64.1192 0.48048 64.3731 0.586248C64.6269 0.692016 64.8574 0.847004 65.051 1.04227L75.5094 11.4589C75.8937 11.8554 76.1087 12.3859 76.1087 12.9381C76.1087 13.4903 75.8937 14.0208 75.5094 14.4173L65.051 24.9173C64.6596 25.2945 64.1363 25.5039 63.5927 25.5006Z" fill="#FF4343"/>
</svg>
