<svg width="16" height="16" viewBox="0 0 16 16" fill="none" xmlns="http://www.w3.org/2000/svg">
<path d="M14.5589 0.205078H1.1025C0.879446 0.205078 0.665528 0.293686 0.507805 0.451409C0.350082 0.609132 0.261475 0.82305 0.261475 1.0461V14.5025C0.261475 14.7256 0.350082 14.9395 0.507805 15.0972C0.665528 15.2549 0.879446 15.3435 1.1025 15.3435H14.5589C14.782 15.3435 14.9959 15.2549 15.1536 15.0972C15.3113 14.9395 15.3999 14.7256 15.3999 14.5025V1.0461C15.3999 0.82305 15.3113 0.609132 15.1536 0.451409C14.9959 0.293686 14.782 0.205078 14.5589 0.205078ZM4.75171 13.1039H2.50449V5.87948H4.75171V13.1039ZM3.6281 4.89295C3.28281 4.89295 2.95167 4.75579 2.70751 4.51163C2.46336 4.26748 2.32619 3.93633 2.32619 3.59105C2.32619 3.24576 2.46336 2.91461 2.70751 2.67046C2.95167 2.4263 3.28281 2.28914 3.6281 2.28914C3.97339 2.28914 4.30453 2.4263 4.54869 2.67046C4.79284 2.91461 4.93001 3.24576 4.93001 3.59105C4.93001 3.93633 4.79284 4.26748 4.54869 4.51163C4.30453 4.75579 3.97339 4.89295 3.6281 4.89295ZM13.1611 13.1039H10.9164V9.59092C10.9164 8.75326 10.9013 7.67591 9.74908 7.67591C8.58006 7.67591 8.4026 8.58926 8.4026 9.53205V13.1047H6.15959V5.88032H8.31261V6.86768H8.34373C8.64229 6.29999 9.37567 5.70118 10.4665 5.70118C12.7406 5.70118 13.1603 7.19652 13.1603 9.14266V13.1039H13.1611Z" fill="#C6CBCD"/>
</svg>
