<svg width="39" height="39" viewBox="0 0 39 39" fill="none" xmlns="http://www.w3.org/2000/svg">
<rect x="0.5" y="0.5" width="38" height="38" stroke="#C6CBCD"/>
<path d="M27 10H11C10.7348 10 10.4804 10.1054 10.2929 10.2929C10.1054 10.4804 10 10.7348 10 11V27C10 27.2652 10.1054 27.5196 10.2929 27.7071C10.4804 27.8946 10.7348 28 11 28H27C27.2652 28 27.5196 27.8946 27.7071 27.7071C27.8946 27.5196 28 27.2652 28 27V11C28 10.7348 27.8946 10.4804 27.7071 10.2929C27.5196 10.1054 27.2652 10 27 10ZM15.339 25.337H12.667V16.747H15.339V25.337ZM14.003 15.574C13.5924 15.574 13.1987 15.4109 12.9084 15.1206C12.6181 14.8303 12.455 14.4366 12.455 14.026C12.455 13.6154 12.6181 13.2217 12.9084 12.9314C13.1987 12.6411 13.5924 12.478 14.003 12.478C14.4136 12.478 14.8073 12.6411 15.0976 12.9314C15.3879 13.2217 15.551 13.6154 15.551 14.026C15.551 14.4366 15.3879 14.8303 15.0976 15.1206C14.8073 15.4109 14.4136 15.574 14.003 15.574ZM25.338 25.337H22.669V21.16C22.669 20.164 22.651 18.883 21.281 18.883C19.891 18.883 19.68 19.969 19.68 21.09V25.338H17.013V16.748H19.573V17.922H19.61C19.965 17.247 20.837 16.535 22.134 16.535C24.838 16.535 25.337 18.313 25.337 20.627V25.337H25.338Z" fill="#C6CBCD"/>
</svg>
