<svg width="69" height="90" viewBox="0 0 69 90" fill="none" xmlns="http://www.w3.org/2000/svg">
<path d="M51.4917 63.2832C51.1469 63.2871 50.8066 63.2055 50.5011 63.0455C50.1957 62.8855 49.9348 62.6522 49.7417 62.3665C49.5878 62.135 49.4818 61.8751 49.4299 61.602C49.3779 61.3289 49.3812 61.0482 49.4394 60.7764C49.4977 60.5046 49.6097 60.2472 49.769 60.0194C49.9282 59.7916 50.1315 59.5979 50.3667 59.4498C55.7266 56.0024 59.826 50.9119 62.0513 44.9402C64.2767 38.9686 64.5084 32.4368 62.7118 26.3224C60.9152 20.2081 57.1869 14.8399 52.0848 11.0213C46.9827 7.20267 40.7812 5.13894 34.4084 5.13894C28.0355 5.13894 21.834 7.20267 16.7319 11.0213C11.6298 14.8399 7.90151 20.2081 6.10491 26.3224C4.30831 32.4368 4.54003 38.9686 6.76542 44.9402C8.9908 50.9119 13.0902 56.0024 18.45 59.4498C18.6957 59.59 18.9103 59.7787 19.0807 60.0045C19.2511 60.2303 19.3737 60.4884 19.4411 60.7632C19.5085 61.0379 19.5192 61.3235 19.4727 61.6025C19.4261 61.8815 19.3232 62.1481 19.1702 62.386C19.0173 62.624 18.8174 62.8283 18.583 62.9865C18.3485 63.1447 18.0842 63.2535 17.8063 63.3062C17.5284 63.359 17.2426 63.3546 16.9665 63.2933C16.6903 63.2321 16.4296 63.1152 16.2 62.9498C10.0822 59.0161 5.40286 53.2069 2.86229 46.3916C0.321723 39.5764 0.0565906 32.1217 2.10657 25.1431C4.15655 18.1646 8.4114 12.0377 14.2343 7.67924C20.0572 3.32081 27.135 0.965332 34.4084 0.965332C41.6818 0.965332 48.7596 3.32081 54.5825 7.67924C60.4054 12.0377 64.6602 18.1646 66.7102 25.1431C68.7602 32.1217 68.495 39.5764 65.9545 46.3916C63.4139 53.2069 58.7345 59.0161 52.6167 62.9498C52.2846 63.1733 51.892 63.2897 51.4917 63.2832Z" fill="#FF4343"/>
<path d="M51.4917 79.7417H17.325C16.7758 79.731 16.2521 79.5081 15.8637 79.1197C15.4753 78.7313 15.2524 78.2076 15.2417 77.6584V61.2C15.2524 60.6508 15.4753 60.1271 15.8637 59.7387C16.2521 59.3503 16.7758 59.1274 17.325 59.1167C17.8776 59.1167 18.4075 59.3362 18.7982 59.7269C19.1889 60.1176 19.4084 60.6475 19.4084 61.2V75.575H49.4084V61.2C49.4084 60.6475 49.6279 60.1176 50.0186 59.7269C50.4093 59.3362 50.9392 59.1167 51.4917 59.1167C52.0409 59.1274 52.5646 59.3503 52.953 59.7387C53.3414 60.1271 53.5644 60.6508 53.575 61.2V77.6584C53.5644 78.2076 53.3414 78.7313 52.953 79.1197C52.5646 79.5081 52.0409 79.731 51.4917 79.7417Z" fill="#FF4343"/>
<path d="M23.4918 89.9084C22.9392 89.9084 22.4093 89.6889 22.0186 89.2982C21.6279 88.9075 21.4084 88.3776 21.4084 87.8251V80.4918C21.4191 79.9426 21.642 79.4189 22.0304 79.0304C22.4189 78.642 22.9426 78.4191 23.4918 78.4084C24.0443 78.4084 24.5742 78.6279 24.9649 79.0186C25.3556 79.4093 25.5751 79.9392 25.5751 80.4918V87.8251C25.5751 88.3776 25.3556 88.9075 24.9649 89.2982C24.5742 89.6889 24.0443 89.9084 23.4918 89.9084Z" fill="#FF4343"/>
<path d="M45.3251 89.9084C44.7726 89.9084 44.2427 89.6889 43.852 89.2982C43.4613 88.9075 43.2418 88.3776 43.2418 87.8251V80.4918C43.2418 79.9392 43.4613 79.4093 43.852 79.0186C44.2427 78.6279 44.7726 78.4084 45.3251 78.4084C45.8743 78.4191 46.398 78.642 46.7864 79.0304C47.1748 79.4189 47.3978 79.9426 47.4084 80.4918V87.8251C47.4084 88.3776 47.1889 88.9075 46.7982 89.2982C46.4075 89.6889 45.8776 89.9084 45.3251 89.9084Z" fill="#FF4343"/>
<path d="M34.4083 79.7417C33.8558 79.7417 33.3259 79.5222 32.9352 79.1315C32.5445 78.7408 32.325 78.2109 32.325 77.6584V44.325C32.325 43.7725 32.5445 43.2426 32.9352 42.8519C33.3259 42.4612 33.8558 42.2417 34.4083 42.2417C34.9609 42.2417 35.4908 42.4612 35.8815 42.8519C36.2722 43.2426 36.4917 43.7725 36.4917 44.325V77.6584C36.4917 78.2109 36.2722 78.7408 35.8815 79.1315C35.4908 79.5222 34.9609 79.7417 34.4083 79.7417Z" fill="#FF4343"/>
</svg>
