<svg width="77" height="82" viewBox="0 0 77 82" fill="none" xmlns="http://www.w3.org/2000/svg">
<path d="M40.2998 81.2278C29.8016 81.2278 19.7334 76.9995 12.3101 69.473C4.88681 61.9466 0.716431 51.7386 0.716431 41.0947C0.716431 30.4507 4.88681 20.2427 12.3101 12.7163C19.7334 5.18984 29.8016 0.961548 40.2998 0.961548C40.8523 0.961548 41.3822 1.18409 41.7729 1.58022C42.1636 1.97634 42.3831 2.51361 42.3831 3.07382C42.3831 3.63402 42.1636 4.17129 41.7729 4.56742C41.3822 4.96354 40.8523 5.18608 40.2998 5.18608C34.4567 5.15096 28.6958 6.58215 23.5306 9.3521C18.3654 12.122 13.9565 16.1447 10.6967 21.0614C7.43688 25.9782 5.42757 31.6363 4.84785 37.5314C4.26812 43.4265 5.13599 49.3755 7.3741 54.848C9.61221 60.3205 13.151 65.1466 17.6751 68.8961C22.1991 72.6455 27.5679 75.2018 33.3028 76.3371C39.0377 77.4724 44.9605 77.1514 50.5434 75.4028C56.1263 73.6541 61.1957 70.5322 65.2998 66.3151C65.485 66.0928 65.7136 65.9117 65.9711 65.7831C66.2287 65.6545 66.5097 65.5814 66.7964 65.5681C67.0832 65.5549 67.3696 65.6018 67.6376 65.7061C67.9056 65.8104 68.1495 65.9697 68.3539 66.174C68.5584 66.3784 68.7189 66.6233 68.8256 66.8936C68.9322 67.1638 68.9826 67.4535 68.9736 67.7444C68.9646 68.0353 68.8964 68.3212 68.7733 68.5841C68.6501 68.8471 68.4748 69.0814 68.2581 69.2723C64.6151 73.0485 60.2663 76.0506 55.4659 78.1033C50.6654 80.1561 45.5097 81.2182 40.2998 81.2278Z" fill="#FF4343"/>
<path d="M39.0497 54.6131C38.7795 54.6219 38.5105 54.5739 38.2595 54.4721C38.0085 54.3703 37.781 54.2169 37.5914 54.0216L20.9247 37.1235C20.7294 36.9271 20.5744 36.6935 20.4687 36.4361C20.3629 36.1787 20.3084 35.9026 20.3084 35.6238C20.3084 35.3449 20.3629 35.0688 20.4687 34.8114C20.5744 34.554 20.7294 34.3204 20.9247 34.1241C21.3211 33.7343 21.8517 33.5164 22.4039 33.5164C22.956 33.5164 23.4866 33.7343 23.883 34.1241L39.0497 49.5436L73.008 15.1136C73.4003 14.7159 73.9324 14.4924 74.4872 14.4924C75.042 14.4924 75.5741 14.7159 75.9664 15.1136C76.3587 15.5114 76.5791 16.0508 76.5791 16.6133C76.5791 17.1758 76.3587 17.7153 75.9664 18.1131L40.5497 54.0216C40.3508 54.2161 40.1158 54.3686 39.8583 54.4701C39.6008 54.5717 39.3259 54.6203 39.0497 54.6131Z" fill="#FF4343"/>
</svg>
