<svg width="85" height="77" viewBox="0 0 85 77" fill="none" xmlns="http://www.w3.org/2000/svg">
<path d="M69.2682 60.6166H15.6848C11.5519 60.6166 7.58817 58.9748 4.66573 56.0524C1.74329 53.1299 0.101475 49.1662 0.101475 45.0333V15.8666C0.0794684 13.8042 0.465993 11.7579 1.23876 9.84563C2.01152 7.93337 3.15523 6.19302 4.60392 4.72496C6.05262 3.2569 7.77763 2.09018 9.67946 1.29209C11.5813 0.493999 13.6223 0.0803338 15.6848 0.0749512H69.2682C73.3977 0.0859488 77.355 1.73129 80.2751 4.65135C83.1951 7.57141 84.8405 11.5287 84.8515 15.6583V45.0333C84.8515 47.0797 84.4484 49.1061 83.6653 50.9968C82.8821 52.8874 81.7343 54.6053 80.2872 56.0524C78.8402 57.4994 77.1223 58.6473 75.2316 59.4304C73.341 60.2135 71.3146 60.6166 69.2682 60.6166ZM15.6848 4.24162C12.6569 4.24162 9.75305 5.44444 7.61201 7.58548C5.47097 9.72652 4.26814 12.6304 4.26814 15.6583V45.0333C4.26814 48.0612 5.47097 50.965 7.61201 53.1061C9.75305 55.2471 12.6569 56.45 15.6848 56.45H69.2682C72.296 56.45 75.1999 55.2471 77.341 53.1061C79.482 50.965 80.6848 48.0612 80.6848 45.0333V15.8666C80.7125 14.3499 80.4376 12.8429 79.8763 11.4336C79.315 10.0244 78.4784 8.7411 77.4155 7.6588C76.3526 6.5765 75.0847 5.71688 73.6858 5.13015C72.2869 4.54343 70.7851 4.24137 69.2682 4.24162H15.6848Z" fill="#FF4343"/>
<path d="M82.7673 44.7834H2.18398C1.63479 44.7727 1.11106 44.5498 0.722644 44.1614C0.334232 43.773 0.111314 43.2492 0.100647 42.7C0.100647 42.1475 0.32014 41.6176 0.710841 41.2269C1.10154 40.8362 1.63145 40.6167 2.18398 40.6167H82.7673C83.3198 40.6167 83.8498 40.8362 84.2404 41.2269C84.6311 41.6176 84.8506 42.1475 84.8506 42.7C84.8506 43.2526 84.6311 43.7825 84.2404 44.1732C83.8498 44.5639 83.3198 44.7834 82.7673 44.7834Z" fill="#FF4343"/>
<path d="M42.4206 76.7416C41.8681 76.7416 41.3382 76.5221 40.9475 76.1314C40.5568 75.7407 40.3373 75.2108 40.3373 74.6583V58.5333C40.3373 57.9807 40.5568 57.4508 40.9475 57.0601C41.3382 56.6694 41.8681 56.45 42.4206 56.45C42.9732 56.45 43.5031 56.6694 43.8938 57.0601C44.2845 57.4508 44.504 57.9807 44.504 58.5333V74.6583C44.504 75.2108 44.2845 75.7407 43.8938 76.1314C43.5031 76.5221 42.9732 76.7416 42.4206 76.7416Z" fill="#FF4343"/>
<path d="M66.4936 76.7419H18.1603C17.6078 76.7419 17.0779 76.5224 16.6872 76.1317C16.2965 75.741 16.077 75.2111 16.077 74.6585C16.077 74.106 16.2965 73.5761 16.6872 73.1854C17.0779 72.7947 17.6078 72.5752 18.1603 72.5752H66.4936C67.0462 72.5752 67.5761 72.7947 67.9668 73.1854C68.3575 73.5761 68.577 74.106 68.577 74.6585C68.577 75.2111 68.3575 75.741 67.9668 76.1317C67.5761 76.5224 67.0462 76.7419 66.4936 76.7419Z" fill="#FF4343"/>
</svg>
