<svg width="17" height="14" viewBox="0 0 17 14" fill="none" xmlns="http://www.w3.org/2000/svg">
<path d="M15.2452 3.39174C15.2561 3.53892 15.2561 3.68526 15.2561 3.8316C15.2561 8.31006 11.8475 13.4706 5.61799 13.4706C3.69877 13.4706 1.9158 12.9147 0.415405 11.9492C0.687898 11.9803 0.950298 11.9912 1.23372 11.9912C2.7585 11.9949 4.24009 11.485 5.43969 10.5438C4.73274 10.531 4.04744 10.2978 3.47946 9.87667C2.91149 9.45555 2.48919 8.86757 2.27155 8.19484C2.48096 8.22596 2.69122 8.24698 2.91157 8.24698C3.21518 8.24698 3.52047 8.20493 3.8039 8.13176C3.03668 7.97686 2.3468 7.561 1.85156 6.9549C1.35631 6.34881 1.08629 5.58989 1.08738 4.80719V4.76514C1.53902 5.0166 2.06297 5.17387 2.61805 5.1949C2.15304 4.8859 1.77174 4.46659 1.50818 3.9744C1.24462 3.4822 1.10699 2.93242 1.10757 2.3741C1.10757 1.74501 1.27493 1.16807 1.56845 0.665138C2.41969 1.71223 3.48137 2.56885 4.68473 3.17952C5.8881 3.79018 7.20632 4.14128 8.55401 4.21006C8.50187 3.95775 8.46991 3.69619 8.46991 3.43379C8.46969 2.98886 8.55716 2.54824 8.72733 2.13713C8.89749 1.72603 9.14702 1.35249 9.46164 1.03787C9.77625 0.723253 10.1498 0.473729 10.5609 0.303562C10.972 0.133395 11.4126 0.0459219 11.8576 0.046143C12.8331 0.046143 13.7137 0.454881 14.3327 1.11593C15.0911 0.969267 15.8184 0.692405 16.4824 0.297609C16.2296 1.08045 15.7 1.74426 14.9929 2.16469C15.6655 2.08797 16.3229 1.91108 16.9432 1.63989C16.4799 2.31531 15.9059 2.9076 15.2452 3.39174Z" fill="#C6CBCD"/>
</svg>
