<svg width="39" height="39" viewBox="0 0 39 39" fill="none" xmlns="http://www.w3.org/2000/svg">
<rect x="0.5" y="0.5" width="38" height="38" stroke="#C6CBCD"/>
<path d="M26.633 14.978C26.646 15.153 26.646 15.327 26.646 15.501C26.646 20.826 22.593 26.962 15.186 26.962C12.904 26.962 10.784 26.301 9 25.153C9.324 25.19 9.636 25.203 9.973 25.203C11.786 25.2074 13.5476 24.6011 14.974 23.482C14.1334 23.4668 13.3186 23.1895 12.6432 22.6887C11.9679 22.188 11.4658 21.4889 11.207 20.689C11.456 20.726 11.706 20.751 11.968 20.751C12.329 20.751 12.692 20.701 13.029 20.614C12.1168 20.4298 11.2965 19.9353 10.7076 19.2147C10.1188 18.494 9.79769 17.5916 9.799 16.661V16.611C10.336 16.91 10.959 17.097 11.619 17.122C11.0661 16.7546 10.6127 16.256 10.2993 15.6708C9.98596 15.0856 9.82231 14.4319 9.823 13.768C9.823 13.02 10.022 12.334 10.371 11.736C11.3831 12.981 12.6455 13.9996 14.0763 14.7257C15.5072 15.4518 17.0746 15.8692 18.677 15.951C18.615 15.651 18.577 15.34 18.577 15.028C18.5767 14.499 18.6807 13.9751 18.8831 13.4862C19.0854 12.9974 19.3821 12.5533 19.7562 12.1792C20.1303 11.8051 20.5744 11.5084 21.0632 11.3061C21.5521 11.1037 22.076 10.9997 22.605 11C23.765 11 24.812 11.486 25.548 12.272C26.4498 12.0976 27.3145 11.7684 28.104 11.299C27.8034 12.2298 27.1738 13.0191 26.333 13.519C27.1328 13.4278 27.9144 13.2175 28.652 12.895C28.1011 13.6981 27.4185 14.4023 26.633 14.978Z" fill="#C6CBCD"/>
</svg>
